<?xml version="1.0" encoding="utf-8"?>
<!-- Generator: Adobe Illustrator 23.0.2, SVG Export Plug-In . SVG Version: 6.00 Build 0)  -->
<svg version="1.1"
	 id="svg3" xmlns:inkscape="http://www.inkscape.org/namespaces/inkscape" xmlns:sodipodi="http://sodipodi.sourceforge.net/DTD/sodipodi-0.dtd" xmlns:svg="http://www.w3.org/2000/svg"
	 xmlns="http://www.w3.org/2000/svg" xmlns:xlink="http://www.w3.org/1999/xlink" x="0px" y="0px" viewBox="0 0 800 800"
	 style="enable-background:new 0 0 800 800;" xml:space="preserve">
<style type="text/css">
	.st0{fill:#FFFFFF;}
</style>
<sodipodi:namedview  bordercolor="#000000" borderopacity="0.25" id="namedview3" inkscape:current-layer="svg3" inkscape:cx="400.49689" inkscape:cy="400" inkscape:deskcolor="#d1d1d1" inkscape:pagecheckerboard="0" inkscape:pageopacity="0.0" inkscape:showpageshadow="2" inkscape:window-height="1011" inkscape:window-maximized="1" inkscape:window-width="1920" inkscape:window-x="0" inkscape:window-y="0" inkscape:zoom="1.00625" pagecolor="#ffffff">
	</sodipodi:namedview>
<g>
	<path class="st0" d="M173.1,355.5c7.8,0,12.2,0,16.5,0c177.9,0,355.9,0,533.8,0c29.2,0,48.1,15.4,51.3,41.7
		c3.1,25.2-16.5,49-41.9,50.8c-4.7,0.3-9.5,0.3-14.2,0.3c-176.5,0-353,0-529.5,0c-4.3,0-8.5,0-15.5,0c3.8,4.9,6.1,8,8.5,10.9
		c53,63.7,106.2,127.4,159.1,191.2c23.3,28.1,12.9,67.1-20.7,76.7c-20.3,5.8-37.3-0.6-50.8-16.8c-33.2-39.9-66.4-79.7-99.6-119.6
		c-42.6-51.1-84.9-102.4-127.8-153.1c-21-24.8-19.4-47.6-0.2-70.7c75.5-90.7,151-181.4,226.6-272c20.8-24.9,53.4-27,73.3-4.9
		c16.4,18.2,16.1,43.1-1.1,63.8C301,201.9,261,249.8,221,297.9C205.7,316.3,190.4,334.7,173.1,355.5z"/>
</g>
</svg>
