<?xml version="1.0" encoding="utf-8"?>
<!-- Generator: Adobe Illustrator 23.0.2, SVG Export Plug-In . SVG Version: 6.00 Build 0)  -->
<svg version="1.1" id="Capa_1" xmlns="http://www.w3.org/2000/svg" xmlns:xlink="http://www.w3.org/1999/xlink" x="0px" y="0px"
	 viewBox="0 0 200 200" style="enable-background:new 0 0 200 200;" xml:space="preserve">
<path d="M96.2,42.3c-16,0-35.7,6.8-41,18.1c-2.5,5.3-3.7,9.9-3.7,13.9v0c0,5.6,2.2,9.4,4.4,13.1c1.8,3.1,3.5,6.1,3.9,10.1H2.1
	c-1.2,0-2.1,1-2.1,2.1s1,2.1,2.1,2.1h57.8c-0.5,4-2.1,6.9-3.9,10c-2.1,3.7-4.4,7.6-4.4,13.2c0,4.1,1.2,8.7,3.7,14
	c5.3,11.3,25,18.1,41,18.1c31.7,0,57.4-25.8,57.4-57.4C153.6,68,127.9,42.3,96.2,42.3z M96.2,46.5c29.3,0,53.1,23.8,53.1,53
	c0,29.4-23.8,53.2-53.1,53.2c-14.3,0-32.6-6-37.1-15.7c-2.2-4.7-3.3-8.7-3.3-12.2c0-4.5,1.8-7.5,3.8-11c2.2-3.8,4.6-8,4.6-14.3
	c0-6.5-2.5-10.7-4.6-14.4c-2-3.5-3.8-6.5-3.8-10.9c0,0,0,0,0,0c0-3.4,1.1-7.4,3.3-12.1C63.7,52.5,81.9,46.5,96.2,46.5z"/>
<path d="M102.1,1.8v22.5c0,1.2-1,2.1-2.1,2.1s-2.1-1-2.1-2.1V1.8c0-1.2,1-2.1,2.1-2.1S102.1,0.6,102.1,1.8z"/>
<path d="M100,172.9c1.2,0,2.1,1,2.1,2.1v22.5c0,1.2-1,2.1-2.1,2.1s-2.1-1-2.1-2.1v-22.5C97.8,173.9,98.8,172.9,100,172.9z"/>
<path d="M173.2,99.7c0-1.2,1-2.1,2.1-2.1h22.5c1.2,0,2.1,1,2.1,2.1s-1,2.1-2.1,2.1h-22.5C174.2,101.8,173.2,100.9,173.2,99.7z"/>
<path d="M26.8,171.3c0-0.5,0.2-1.1,0.6-1.5l15.9-15.9c0.8-0.8,2.2-0.8,3,0c0.8,0.8,0.8,2.2,0,3l-15.9,15.9c-0.8,0.8-2.2,0.8-3,0
	C27,172.4,26.8,171.8,26.8,171.3z"/>
<path d="M168.9,31.3c0.8,0.8,0.8,2.2,0,3L153,50.2c-0.8,0.8-2.2,0.8-3,0c-0.4-0.4-0.6-1-0.6-1.5s0.2-1.1,0.6-1.5l15.9-15.9
	C166.7,30.5,168.1,30.5,168.9,31.3z"/>
<path d="M170.7,170.4c-0.8,0.8-2.2,0.8-3,0l-15.9-15.9c-0.4-0.4-0.6-1-0.6-1.5c0-0.5,0.2-1.1,0.6-1.5c0.8-0.8,2.2-0.8,3,0l15.9,15.9
	C171.5,168.2,171.5,169.6,170.7,170.4z"/>
<path d="M48.2,44.8c0.8,0.8,0.8,2.2,0,3c-0.8,0.8-2.2,0.8-3,0L29.2,32c-0.4-0.4-0.6-1-0.6-1.5c0-0.5,0.2-1.1,0.6-1.5
	c0.8-0.8,2.2-0.8,3,0L48.2,44.8z"/>
<path d="M20,132.8c0-0.8,0.5-1.6,1.3-2l10.3-4.4c1.1-0.5,2.3,0,2.8,1.1c0.5,1.1,0,2.3-1.1,2.8L23,134.8c-1.1,0.5-2.3,0-2.8-1.1
	C20,133.4,20,133.1,20,132.8z"/>
<path d="M177.3,68.5l-10.3,4.4c-1.1,0.5-2.3,0-2.8-1.1c-0.1-0.3-0.2-0.6-0.2-0.8c0-0.8,0.5-1.6,1.3-2l10.3-4.4
	c1.1-0.5,2.3,0,2.8,1.1C178.8,66.7,178.3,68,177.3,68.5z"/>
<path d="M73.1,165.2c1.1,0.4,1.6,1.7,1.2,2.8l-4.2,10.5c-0.4,1.1-1.7,1.6-2.8,1.2c-0.8-0.3-1.3-1.1-1.3-2c0-0.3,0-0.5,0.2-0.8
	l4.2-10.5C70.8,165.3,72,164.8,73.1,165.2z"/>
<path d="M125.4,34.1c-0.8-0.3-1.3-1.1-1.3-2c0-0.3,0-0.5,0.2-0.8l4.2-10.5c0.4-1.1,1.7-1.6,2.8-1.2c1.1,0.4,1.6,1.7,1.2,2.8
	l-4.2,10.5C127.7,34,126.5,34.5,125.4,34.1z"/>
<path d="M176.5,132.8l-10.5-4.2c-0.8-0.3-1.3-1.1-1.3-2c0-0.3,0-0.5,0.2-0.8c0.4-1.1,1.7-1.6,2.8-1.2l10.5,4.2
	c1.1,0.4,1.6,1.7,1.2,2.8C178.8,132.7,177.6,133.2,176.5,132.8z"/>
<path d="M19.1,68.6c0-0.3,0-0.5,0.2-0.8c0.4-1.1,1.7-1.6,2.8-1.2l10.5,4.2c1.1,0.4,1.6,1.7,1.2,2.8c-0.4,1.1-1.7,1.6-2.8,1.2
	l-10.5-4.2C19.6,70.2,19.1,69.4,19.1,68.6z"/>
<path d="M130,165.6l4.4,10.3c0.5,1.1,0,2.3-1.1,2.8c-1.1,0.5-2.3,0-2.8-1.1l-4.4-10.3c-0.1-0.3-0.2-0.6-0.2-0.8c0-0.8,0.5-1.6,1.3-2
	C128.2,164.1,129.5,164.6,130,165.6z"/>
<path d="M68.6,33.7l-4.4-10.3c-0.1-0.3-0.2-0.6-0.2-0.8c0-0.8,0.5-1.6,1.3-2c1.1-0.5,2.3,0,2.8,1.1L72.5,32c0.5,1.1,0,2.3-1.1,2.8
	C70.3,35.3,69,34.8,68.6,33.7z"/>
</svg>
