<?xml version="1.0" encoding="utf-8"?>
<!-- Generator: Adobe Illustrator 23.0.2, SVG Export Plug-In . SVG Version: 6.00 Build 0)  -->
<svg version="1.1" id="Capa_1" xmlns="http://www.w3.org/2000/svg" xmlns:xlink="http://www.w3.org/1999/xlink" x="0px" y="0px"
	 viewBox="0 0 200 200" style="enable-background:new 0 0 200 200;" xml:space="preserve">
<path d="M46.3,99.7c0,31.7,25.8,57.4,57.4,57.4c16,0,35.7-6.8,41-18.1c2.5-5.3,3.7-9.9,3.7-14c0-5.6-2.2-9.5-4.4-13.2
	c-1.8-3-3.4-6-3.9-10h57.8c1.2,0,2.1-1,2.1-2.1s-1-2.1-2.1-2.1h-57.8c0.4-4.1,2.1-7,3.9-10.1c2.1-3.7,4.4-7.5,4.4-13.1v0
	c0-4.1-1.2-8.6-3.7-13.9c-5.3-11.3-25-18.1-41-18.1C72.1,42.3,46.3,68,46.3,99.7z M140.8,62.2c2.2,4.7,3.3,8.7,3.3,12.1c0,0,0,0,0,0
	c0,4.4-1.8,7.4-3.8,10.9c-2.2,3.7-4.6,8-4.6,14.4c0,6.3,2.5,10.5,4.6,14.3c2,3.5,3.8,6.6,3.8,11c0,3.5-1.1,7.4-3.3,12.2
	c-4.5,9.7-22.8,15.7-37.1,15.7c-29.3,0-53.1-23.8-53.1-53.2c0-29.2,23.8-53,53.1-53C118,46.5,136.3,52.5,140.8,62.2z"/>
<path d="M97.8,1.8v22.5c0,1.2,1,2.1,2.1,2.1s2.1-1,2.1-2.1V1.8c0-1.2-1-2.1-2.1-2.1S97.8,0.6,97.8,1.8z"/>
<path d="M100,172.9c-1.2,0-2.1,1-2.1,2.1v22.5c0,1.2,1,2.1,2.1,2.1s2.1-1,2.1-2.1v-22.5C102.1,173.9,101.1,172.9,100,172.9z"/>
<path d="M26.7,99.7c0-1.2-1-2.1-2.1-2.1H2.1c-1.2,0-2.1,1-2.1,2.1s1,2.1,2.1,2.1h22.5C25.8,101.8,26.7,100.9,26.7,99.7z"/>
<path d="M173.1,171.3c0-0.5-0.2-1.1-0.6-1.5l-15.9-15.9c-0.8-0.8-2.2-0.8-3,0c-0.8,0.8-0.8,2.2,0,3l15.9,15.9c0.8,0.8,2.2,0.8,3,0
	C172.9,172.4,173.1,171.8,173.1,171.3z"/>
<path d="M31,31.3c-0.8,0.8-0.8,2.2,0,3l15.9,15.9c0.8,0.8,2.2,0.8,3,0c0.4-0.4,0.6-1,0.6-1.5c0-0.5-0.2-1.1-0.6-1.5L34.1,31.3
	C33.2,30.5,31.9,30.5,31,31.3z"/>
<path d="M29.2,170.4c0.8,0.8,2.2,0.8,3,0l15.9-15.9c0.4-0.4,0.6-1,0.6-1.5c0-0.5-0.2-1.1-0.6-1.5c-0.8-0.8-2.2-0.8-3,0l-15.9,15.9
	C28.4,168.2,28.4,169.6,29.2,170.4z"/>
<path d="M151.8,44.8c-0.8,0.8-0.8,2.2,0,3c0.8,0.8,2.2,0.8,3,0L170.7,32c0.4-0.4,0.6-1,0.6-1.5c0-0.5-0.2-1.1-0.6-1.5
	c-0.8-0.8-2.2-0.8-3,0L151.8,44.8z"/>
<path d="M180,132.8c0-0.8-0.5-1.6-1.3-2l-10.3-4.4c-1.1-0.5-2.3,0-2.8,1.1c-0.5,1.1,0,2.3,1.1,2.8l10.3,4.4c1.1,0.5,2.3,0,2.8-1.1
	C179.9,133.4,180,133.1,180,132.8z"/>
<path d="M22.7,68.5L33,72.9c1.1,0.5,2.3,0,2.8-1.1c0.1-0.3,0.2-0.6,0.2-0.8c0-0.8-0.5-1.6-1.3-2l-10.3-4.4c-1.1-0.5-2.3,0-2.8,1.1
	C21.1,66.7,21.6,68,22.7,68.5z"/>
<path d="M126.8,165.2c-1.1,0.4-1.6,1.7-1.2,2.8l4.2,10.5c0.4,1.1,1.7,1.6,2.8,1.2c0.8-0.3,1.3-1.1,1.3-2c0-0.3,0-0.5-0.2-0.8
	l-4.2-10.5C129.1,165.3,127.9,164.8,126.8,165.2z"/>
<path d="M74.5,34.1c0.8-0.3,1.3-1.1,1.3-2c0-0.3,0-0.5-0.2-0.8l-4.2-10.5c-0.4-1.1-1.7-1.6-2.8-1.2c-1.1,0.4-1.6,1.7-1.2,2.8
	l4.2,10.5C72.2,34,73.4,34.5,74.5,34.1z"/>
<path d="M23.4,132.8l10.5-4.2c0.8-0.3,1.3-1.1,1.3-2c0-0.3,0-0.5-0.2-0.8c-0.4-1.1-1.7-1.6-2.8-1.2l-10.5,4.2
	c-1.1,0.4-1.6,1.7-1.2,2.8C21.1,132.7,22.3,133.2,23.4,132.8z"/>
<path d="M180.8,68.6c0-0.3,0-0.5-0.2-0.8c-0.4-1.1-1.7-1.6-2.8-1.2l-10.5,4.2c-1.1,0.4-1.6,1.7-1.2,2.8c0.4,1.1,1.7,1.6,2.8,1.2
	l10.5-4.2C180.3,70.2,180.8,69.4,180.8,68.6z"/>
<path d="M70,165.6L65.5,176c-0.5,1.1,0,2.3,1.1,2.8c1.1,0.5,2.3,0,2.8-1.1l4.4-10.3c0.1-0.3,0.2-0.6,0.2-0.8c0-0.8-0.5-1.6-1.3-2
	C71.7,164.1,70.4,164.6,70,165.6z"/>
<path d="M131.4,33.7l4.4-10.3c0.1-0.3,0.2-0.6,0.2-0.8c0-0.8-0.5-1.6-1.3-2c-1.1-0.5-2.3,0-2.8,1.1L127.4,32c-0.5,1.1,0,2.3,1.1,2.8
	C129.6,35.3,130.9,34.8,131.4,33.7z"/>
</svg>
