<?xml version="1.0" encoding="UTF-8" standalone="no"?>
<!-- Generator: Adobe Illustrator 23.0.2, SVG Export Plug-In . SVG Version: 6.00 Build 0)  -->

<svg
   version="1.1"
   id="svg3"
   x="0px"
   y="0px"
   viewBox="0 0 800 800"
   style="enable-background:new 0 0 800 800;"
   xml:space="preserve"
   sodipodi:docname="next.svg"
   inkscape:version="1.2.2 (b0a8486541, 2022-12-01)"
   xmlns:inkscape="http://www.inkscape.org/namespaces/inkscape"
   xmlns:sodipodi="http://sodipodi.sourceforge.net/DTD/sodipodi-0.dtd"
   xmlns="http://www.w3.org/2000/svg"
   xmlns:svg="http://www.w3.org/2000/svg"><defs
   id="defs10" />
<style
   type="text/css"
   id="style2">
	.st0{fill:#FFFFFF;}
</style>
<sodipodi:namedview
   bordercolor="#000000"
   borderopacity="0.25"
   id="namedview3"
   inkscape:current-layer="svg3"
   inkscape:cx="290.92393"
   inkscape:cy="403.3583"
   inkscape:deskcolor="#d1d1d1"
   inkscape:pagecheckerboard="0"
   inkscape:pageopacity="0.0"
   inkscape:showpageshadow="2"
   inkscape:window-height="832"
   inkscape:window-maximized="1"
   inkscape:window-width="1600"
   inkscape:window-x="0"
   inkscape:window-y="0"
   inkscape:zoom="0.7115262"
   pagecolor="#ffffff"
   showgrid="false">
	</sodipodi:namedview>
<g
   id="g7"
   transform="matrix(-1,0,0,1,802.14354,0)">
	<path
   class="st0"
   d="m 173.1,355.5 c 7.8,0 12.2,0 16.5,0 177.9,0 355.9,0 533.8,0 29.2,0 48.1,15.4 51.3,41.7 3.1,25.2 -16.5,49 -41.9,50.8 -4.7,0.3 -9.5,0.3 -14.2,0.3 -176.5,0 -353,0 -529.5,0 -4.3,0 -8.5,0 -15.5,0 3.8,4.9 6.1,8 8.5,10.9 53,63.7 106.2,127.4 159.1,191.2 23.3,28.1 12.9,67.1 -20.7,76.7 -20.3,5.8 -37.3,-0.6 -50.8,-16.8 C 236.5,670.4 203.3,630.6 170.1,590.7 127.5,539.6 85.2,488.3 42.3,437.6 21.3,412.8 22.9,390 42.1,366.9 117.6,276.2 193.1,185.5 268.7,94.9 289.5,70 322.1,67.9 342,90 c 16.4,18.2 16.1,43.1 -1.1,63.8 -39.9,48.1 -79.9,96 -119.9,144.1 -15.3,18.4 -30.6,36.8 -47.9,57.6 z"
   id="path5" />
</g>
</svg>
