<?xml version="1.0" encoding="utf-8"?>
<!-- Generator: Adobe Illustrator 23.0.2, SVG Export Plug-In . SVG Version: 6.00 Build 0)  -->
<svg version="1.1" id="Capa_1" xmlns="http://www.w3.org/2000/svg" xmlns:xlink="http://www.w3.org/1999/xlink" x="0px" y="0px"
	 viewBox="0 0 800 800" style="enable-background:new 0 0 800 800;" xml:space="preserve">
<style type="text/css">
	.st0{fill:#FFFFFF;}
</style>
<g>
	<path class="st0" d="M75.4,726.6c2.9-8.7,5.6-16.6,8.3-24.6c16.1-47.4,32.2-94.9,48.3-142.3c0.8-2.3,0.7-4-0.6-6.1
		c-15.8-26.6-27.5-54.8-34.9-84.8c-4.1-16.6-6.8-33.5-8.3-50.5c-1.7-20.5-1.4-40.9,0.9-61.3c4.1-36.2,14-70.6,30.2-103.3
		c25-50.5,60.8-91.6,107.4-123.4c34.7-23.7,72.7-39.7,113.9-48.4c29.3-6.2,59-8.4,88.8-6.1c73.4,5.5,137.8,32.4,192.6,81.6
		c47.2,42.4,78.9,94.5,95,155.9c8.1,30.9,11.2,62.4,9.7,94.4c-2.1,43.7-12.6,85.3-32.1,124.4c-31.5,63-78.8,110.6-141.3,143
		c-29.2,15.1-60.2,25.1-92.7,30.6c-24.6,4.1-49.2,5.4-74.1,3.8c-46.3-3-89.9-15.4-130.8-37.2c-2.4-1.3-4.3-1.3-6.8-0.5
		c-56.4,18-112.8,35.9-169.1,53.8C78.5,725.8,77.3,726.1,75.4,726.6z M308.3,237.4C308.3,237.4,308.3,237.4,308.3,237.4
		c-3.3,0.1-6.5-0.1-9.8,0.1c-7.4,0.4-13.7,3.3-19.1,8.3c-1.3,1.2-2.5,2.4-3.8,3.6c-23.5,22.9-31.8,50.7-26.9,82.8
		c2.2,14.3,7.4,27.6,13.7,40.5c5.3,11,12.3,21.1,18.8,31.4c12.7,20,27,38.8,43,56.2c18.2,19.8,38.4,37.2,61.3,51.4
		c12.6,7.8,26,13.9,39.7,19.5c15.8,6.5,31.6,12.9,48.2,17.4c7,1.9,14.1,3.7,21.3,3c7-0.6,14.1-1.5,21-3.2
		c15.5-3.8,29.1-11.5,40.9-22.4c3.4-3.2,6.6-6.7,8.5-11c4.8-10.8,7.7-22.1,8.1-34.1c0.2-5-1.7-8.5-6.1-10.8c-3.8-2-7.6-4.1-11.4-6.1
		c-16.4-8.6-32.7-17.2-49.2-25.7c-3.5-1.8-7.3-3-11.1-4.2c-3.2-1-6.2,0-8.7,2.2c-1,0.9-1.9,2-2.9,3.1c-9,10.2-17.9,20.5-26.9,30.7
		c-0.8,1-1.8,1.8-2.8,2.6c-2.6,1.8-5.4,2.7-8.6,1.7c-1.9-0.6-3.8-1.2-5.5-2c-3.2-1.4-6.3-3.1-9.4-4.6c-43.9-20.9-76.1-54-99.2-96.3
		c-3.2-5.9-2.5-10,2.2-14.8c4.3-4.4,8.5-9,12.8-13.4c4.3-4.4,7.5-9.5,10.4-14.8c2.3-4.3,2.5-8.6,0.8-13.1c-0.8-2.2-1.8-4.3-2.6-6.5
		c-7-18.6-13.8-37.3-20.9-55.8c-1.3-3.4-3.1-6.8-5.1-9.9c-2.5-3.8-6.2-5.9-10.9-5.8C314.8,237.4,311.6,237.4,308.3,237.4z"/>
</g>
</svg>
